HIERARCHY
ROOT Hips
{
	OFFSET 0.00000 0.00000 0.00000
	CHANNELS 6 Xposition Yposition Zposition Zrotation Yrotation Xrotation 
	JOINT LHipJoint
	{
		OFFSET 0 0 0
		CHANNELS 3 Zrotation Yrotation Xrotation
		JOINT LeftUpLeg
		{
			OFFSET 1.26600 -1.82114 0.91038
			CHANNELS 3 Zrotation Yrotation Xrotation
			JOINT LeftLeg
			{
				OFFSET 2.50076 -6.87080 0.00000
				CHANNELS 3 Zrotation Yrotation Xrotation
				JOINT LeftFoot
				{
					OFFSET 2.57364 -7.07102 0.00000
					CHANNELS 3 Zrotation Yrotation Xrotation
					JOINT LeftToeBase
					{
						OFFSET 0.13572 -0.37290 1.97004
						CHANNELS 3 Zrotation Yrotation Xrotation
						End Site
						{
							OFFSET 0.00000 -0.00000 1.01383
						}
					}
				}
			}
		}
	}
	JOINT RHipJoint
	{
		OFFSET 0 0 0
		CHANNELS 3 Zrotation Yrotation Xrotation
		JOINT RightUpLeg
		{
			OFFSET -1.20803 -1.82114 0.91038
			CHANNELS 3 Zrotation Yrotation Xrotation
			JOINT RightLeg
			{
				OFFSET -2.54916 -7.00377 0.00000
				CHANNELS 3 Zrotation Yrotation Xrotation
				JOINT RightFoot
				{
					OFFSET -2.56374 -7.04382 0.00000
					CHANNELS 3 Zrotation Yrotation Xrotation
					JOINT RightToeBase
					{
						OFFSET -0.23520 -0.64621 2.09921
						CHANNELS 3 Zrotation Yrotation Xrotation
						End Site
						{
							OFFSET -0.00000 -0.00000 1.10065
						}
					}
				}
			}
		}
	}
	JOINT LowerBack
	{
		OFFSET 0 0 0
		CHANNELS 3 Zrotation Yrotation Xrotation
		JOINT Spine
		{
			OFFSET 0.05492 2.10797 -0.12074
			CHANNELS 3 Zrotation Yrotation Xrotation
			JOINT Spine1
			{
				OFFSET 0.04577 2.11592 -0.04483
				CHANNELS 3 Zrotation Yrotation Xrotation
				JOINT Neck
				{
					OFFSET 0 0 0
					CHANNELS 3 Zrotation Yrotation Xrotation
					JOINT Neck1
					{
						OFFSET -0.10759 1.80167 0.15770
						CHANNELS 3 Zrotation Yrotation Xrotation
						JOINT Head
						{
							OFFSET 0.09237 1.77509 -0.40848
							CHANNELS 3 Zrotation Yrotation Xrotation
							End Site
							{
								OFFSET 0.03805 1.84093 -0.15754
							}
						}
					}
				}
				JOINT LeftShoulder
				{
					OFFSET 0 0 0
					CHANNELS 3 Zrotation Yrotation Xrotation
					JOINT LeftArm
					{
						OFFSET 3.42372 1.09575 -0.28209
						CHANNELS 3 Zrotation Yrotation Xrotation
						JOINT LeftForeArm
						{
							OFFSET 4.95681 -0.00000 0.00000
							CHANNELS 3 Zrotation Yrotation Xrotation
							JOINT LeftHand
							{
								OFFSET 3.40915 -0.00000 0.00000
								CHANNELS 3 Zrotation Yrotation Xrotation
								JOINT LeftFingerBase
								{
									OFFSET 0 0 0
									CHANNELS 3 Zrotation Yrotation Xrotation
									JOINT LeftHandIndex1
									{
										OFFSET 0.61640 -0.00000 0.00000
										CHANNELS 3 Zrotation Yrotation Xrotation
										End Site
										{
											OFFSET 0.49696 -0.00000 0.00000
										}
									}
								}
								JOINT LThumb
								{
									OFFSET 0 0 0
									CHANNELS 3 Zrotation Yrotation Xrotation
									End Site
									{
										OFFSET 0.50455 -0.00000 0.50455
									}
								}
							}
						}
					}
				}
				JOINT RightShoulder
				{
					OFFSET 0 0 0
					CHANNELS 3 Zrotation Yrotation Xrotation
					JOINT RightArm
					{
						OFFSET -3.24731 1.15872 -0.32221
						CHANNELS 3 Zrotation Yrotation Xrotation
						JOINT RightForeArm
						{
							OFFSET -5.35200 -0.00000 0.00000
							CHANNELS 3 Zrotation Yrotation Xrotation
							JOINT RightHand
							{
								OFFSET -3.43721 -0.00000 -0.00000
								CHANNELS 3 Zrotation Yrotation Xrotation
								JOINT RightFingerBase
								{
									OFFSET 0 0 0
									CHANNELS 3 Zrotation Yrotation Xrotation
									JOINT RightHandIndex1
									{
										OFFSET -0.72009 -0.00000 0.00000
										CHANNELS 3 Zrotation Yrotation Xrotation
										End Site
										{
											OFFSET -0.58056 -0.00000 0.00000
										}
									}
								}
								JOINT RThumb
								{
									OFFSET 0 0 0
									CHANNELS 3 Zrotation Yrotation Xrotation
									End Site
									{
										OFFSET -0.58942 -0.00000 0.58942
									}
								}
							}
						}
					}
				}
			}
		}
	}
}
MOTION
Frames: 7
Frame Time: 0.0215054
0.00 0.00 0.00 0 0 0 0 0 0 -21 0 0 0 0 0 0 0 0 0 0 0 0 0 0 21 0 0 0 0 0 0 0 0 0 0 0 0 0 0 0 0 0 0 0 0 0 0 -16 0 0 21 0 0 11 0 0 0 -8 0 0 0 0 0 0 0 0 0 0 0 0 0 0 0 0 0 0 0 0 8 0 0 0 0 0 0 0 0 0 0 0 0 0 0 0 0 0
0.00 0.00 0.00 -3.6517 -1.9989 3.9357 0.0000 0.0000 0.0000 -14.4769 0.2840 -12.1285 2.5175 9.8696 28.5555 0.6647 -14.0110 -16.3933 0.0863 -1.8950 -5.2156 0.0000 0.0000 0.0000 25.7693 0.9270 -12.3087 -3.0477 -10.7719 31.5143 -1.4818 7.0475 -21.7876 -0.0854 -1.8853 5.1887 1.7543 0.7433 2.7727 3.1388 0.9664 3.4559 2.2324 0.4810 1.9704 -9.5636 -0.1692 -8.3000 3.1456 0.9827 41.3632 3.2721 -0.6378 16.1290 0.0000 -0.0000 0.0000 -81.9862 20.9997 41.1026 68.3808 -58.1581 -41.3930 -0.0000 0.0000 -20.4106 13.9368 17.5254 4.2736 -7.1250 0.0000 -0.0000 -13.4453 47.5408 -0.8576 0.0000 -0.0000 0.0000 72.4199 -22.9552 43.2147 -83.8519 59.8567 -54.6782 0.0000 -0.0000 -16.8141 -16.9198 12.3518 -3.7232 7.1250 -0.0000 -0.0000 7.1637 -17.1499 4.7705
0.00 0.00 0.00 -3.5260 -2.4152 3.2345 0.0000 0.0000 0.0000 -14.3396 0.1642 -11.5322 2.7053 10.2020 29.6334 0.7927 -14.0317 -17.4570 0.0348 -1.2047 -3.3121 0.0000 0.0000 0.0000 25.8991 0.8136 -11.2354 -3.1123 -10.8746 31.8582 -1.7037 6.8596 -23.4172 -0.1217 -2.2489 6.1940 1.8272 0.8739 3.6462 2.9497 1.1896 3.0914 1.9728 0.5952 1.1051 -9.7286 -0.0564 -8.6605 3.2359 1.1950 40.6523 3.3508 -0.5342 15.8143 -0.0000 0.0000 0.0000 -84.4045 17.7988 31.9543 50.3157 -53.1220 -26.4265 -0.0000 0.0000 -12.5647 17.6543 20.4743 6.3523 -7.1250 0.0000 -0.0000 -10.9392 51.0536 -1.6483 -0.0000 0.0000 0.0000 75.0967 -19.6901 38.4114 -61.7683 56.7630 -35.8163 0.0000 -0.0000 -13.4759 -18.3257 10.2684 -3.3790 7.1250 -0.0000 -0.0000 6.1675 -19.2090 3.8170
0.00 0.00 0.00 -5.1754 -1.1819 1.4811 0.0000 0.0000 0.0000 -11.1978 -2.8218 -16.7582 5.8161 14.2477 44.2389 0.2669 -12.3455 -11.8905 0.0548 -1.5104 -4.1543 0.0000 0.0000 0.0000 28.9041 -0.5080 -6.7787 -2.4767 -9.7953 28.3165 -1.7025 6.4178 -23.4343 -0.2245 -3.0498 8.4173 4.3506 0.6800 5.8392 3.2476 1.1036 3.7968 0.8473 0.5905 0.6619 -9.7808 -0.2179 -11.3804 2.5222 1.5916 39.5972 3.1156 -0.4296 15.9105 -0.0000 -0.0000 0.0000 -86.2545 9.9590 14.2625 25.2442 -36.4526 -8.4346 -0.0000 0.0000 -6.7941 20.8373 25.3919 9.2694 -7.1250 0.0000 -0.0000 -9.7290 56.6397 -2.7943 -0.0000 -0.0000 0.0000 81.7091 -7.2084 23.0162 -24.4279 35.6135 -7.9544 0.0000 -0.0000 -11.7290 -19.0855 7.0518 -2.4323 7.1250 -0.0000 -0.0000 5.6336 -22.5334 3.0590
0.00 0.00 0.00 -7.4502 -0.4573 0.3245 0.0000 0.0000 0.0000 -6.1145 -4.2752 -28.4532 10.5989 17.7332 61.4721 -0.4047 -12.4429 -1.2431 0.1811 -2.7410 -7.5584 0.0000 0.0000 0.0000 32.1997 -2.6249 -3.2287 -1.7844 -8.4018 23.9413 -1.5632 5.6167 -22.4817 -0.2225 -3.0365 8.3805 6.7414 0.7841 7.9265 4.0206 1.5105 4.4789 0.2685 0.8261 0.2775 -9.9230 -0.5539 -12.8342 2.5465 1.2848 38.2936 3.0839 -0.5189 15.6202 -0.0000 -0.0000 0.0000 -85.7008 9.6878 9.6012 19.4912 -30.0245 -5.2744 -0.0000 0.0000 -7.9629 21.2108 23.8839 8.9300 -7.1250 0.0000 -0.0000 -8.6766 55.1769 -2.1801 -0.0000 -0.0000 0.0000 84.2590 0.7892 5.3036 -11.4820 19.0233 -1.9301 0.0000 -0.0000 -5.8386 -22.8459 8.3578 -3.5043 7.1250 -0.0000 -0.0000 2.9056 -20.9270 1.6782
0.00 0.00 0.00 -8.0335 -2.7572 1.2444 0.0000 0.0000 0.0000 -7.0854 -5.5761 -34.1335 3.0316 10.7460 31.4280 0.3997 -2.0106 -11.4144 0.5711 -4.8397 -13.4518 0.0000 0.0000 0.0000 32.4997 -4.3049 5.9461 -0.5987 -4.9534 13.7757 -1.1767 5.7683 -19.4032 -0.0814 -1.8408 5.0660 8.6164 2.0798 7.7876 3.7405 3.2994 4.7840 -1.1533 1.7782 0.8959 -9.7185 -0.6266 -12.5403 2.3891 1.1265 36.9772 2.9140 -0.5136 14.9147 -0.0000 -0.0000 0.0000 -88.4183 13.7071 2.0126 15.2154 -24.4454 -3.3146 -0.0000 0.0000 -3.9118 16.7134 23.1453 6.7312 -7.1250 0.0000 -0.0000 -12.9432 53.5668 -2.7628 -0.0000 -0.0000 0.0000 86.6904 -2.9774 14.3494 -15.1938 24.4154 -3.3056 0.0000 -0.0000 -9.2485 -17.4174 10.7456 -3.3475 7.1250 -0.0000 -0.0000 6.8107 -18.7748 4.2866
0.00 0.00 0.00 -7.7828 -7.2994 1.4857 0.0000 0.0000 0.0000 -9.4349 -4.0202 -27.3014 1.9347 8.7287 24.9503 -0.0619 -4.9355 -0.5674 0.0157 0.8098 2.2255 0.0000 0.0000 0.0000 28.2760 -2.2366 10.5236 -2.4767 -9.7954 28.3168 -0.1080 6.6269 -6.9863 -0.5602 4.7941 -13.3222 7.2195 2.9955 6.1848 2.7443 4.3352 3.7703 -1.4160 2.2557 0.7720 -8.4077 0.1709 -12.1110 3.4383 1.4752 37.4177 3.1819 -0.0716 14.9538 -0.0000 -0.0000 0.0000 -91.1353 11.3961 5.3763 14.7530 -23.8009 -3.1256 -0.0000 -0.0000 0.6732 13.7844 21.6383 5.1693 -7.1250 0.0000 -0.0000 -15.1596 51.5681 -2.5004 -0.0000 -0.0000 0.0000 86.7441 -2.5225 16.0330 -17.2974 27.2482 -4.2226 0.0000 -0.0000 -10.8790 -19.4280 10.6650 -3.7346 7.1250 -0.0000 -0.0000 5.3904 -18.7150 3.3908
